# xmcd
#
# Track frame offsets:
#	150
#	24059
#	51594
#	67440
#	91930
#	117545
#	137211
#	161477
#	184579
#	207855
#
# Disc length: 3011 seconds
# Revision: 0
# Processed by: cddbd v1.5.2PL0 Copyright (c) Steve Scherf et al.
# Submitted via: dBpowerAMP V12.0
#
DISCID=900bc10a
DTITLE=Van Khanh - Chung mong
DYEAR=2011
DGENRE=Contemporary Pop
TTITLE0=Mo
TTITLE1=Chieu tan
TTITLE2=Chung mong
TTITLE3=Danh mat dem vui
TTITLE4=Gac vang
TTITLE5=Kiep ngheo
TTITLE6=Khoc tham
TTITLE7=Tinh van chua yen
TTITLE8=Chuyen buon ngay xuan
TTITLE9=La thu mien Trung
EXTD=
EXTT0=
EXTT1=
EXTT2=
EXTT3=
EXTT4=
EXTT5=
EXTT6=
EXTT7=
EXTT8=
EXTT9=
PLAYORDER=
